<svg width="33" height="33" viewBox="0 0 33 33" fill="none" xmlns="http://www.w3.org/2000/svg">
<path fill-rule="evenodd" clip-rule="evenodd" d="M29.9574 14.4912C29.7713 14.672 29.5186 14.7754 29.2527 14.7754C28.2686 14.7754 27.4707 15.5505 27.4707 16.4935C27.4707 17.443 28.2593 18.2143 29.234 18.2246C29.7832 18.2298 30.25 18.6018 30.25 19.1353V22.4489C30.25 25.238 27.9229 27.5 25.0505 27.5H20.7154C20.2673 27.5 19.9043 27.1473 19.9043 26.712V23.9216C19.9043 23.379 19.4654 22.9527 18.9069 22.9527C18.3617 22.9527 17.9096 23.379 17.9096 23.9216V26.712C17.9096 27.1473 17.5465 27.5 17.0997 27.5H7.94947C5.09043 27.5 2.75 25.2393 2.75 22.4489V19.1353C2.75 18.6018 3.21676 18.2298 3.76596 18.2246C4.74202 18.2143 5.52926 17.443 5.52926 16.4935C5.52926 15.5763 4.75798 14.8787 3.74734 14.8787C3.48138 14.8787 3.22872 14.7754 3.04255 14.5945C2.85638 14.4137 2.75 14.1682 2.75 13.9099V10.564C2.75 7.7788 5.09574 5.5 7.96277 5.5H17.0997C17.5465 5.5 17.9096 5.85267 17.9096 6.28802V9.59513C17.9096 10.1248 18.3617 10.564 18.9069 10.564C19.4654 10.564 19.9043 10.1248 19.9043 9.59513V6.28802C19.9043 5.85267 20.2673 5.5 20.7154 5.5H25.0505C27.9229 5.5 30.25 7.76072 30.25 10.5511V13.8065C30.25 14.0649 30.1436 14.3103 29.9574 14.4912ZM18.9069 20.4466C19.4654 20.4466 19.9043 20.0073 19.9043 19.4777V14.3103C19.9043 13.7807 19.4654 13.3415 18.9069 13.3415C18.3617 13.3415 17.9096 13.7807 17.9096 14.3103V19.4777C17.9096 20.0073 18.3617 20.4466 18.9069 20.4466Z" fill="url(#paint0_linear_181_325)"/>
<defs>
<linearGradient id="paint0_linear_181_325" x1="6" y1="4" x2="39" y2="41" gradientUnits="userSpaceOnUse">
<stop stop-color="#1BAB8B"/>
<stop offset="1" stop-color="#EDF8F7"/>
</linearGradient>
</defs>
</svg>
